<svg xmlns="http://www.w3.org/2000/svg" xmlns:xlink="http://www.w3.org/1999/xlink" viewBox="8043 -4449 1920 1080">
  <defs>
    <style>
      .cls-1 {
        opacity: 0.35;
      }

      .cls-2 {
        clip-path: url(#clip-path);
      }

      .cls-3 {
        fill: #63a943;
      }

      .cls-4, .cls-5, .cls-6, .cls-7 {
        fill: none;
        stroke-miterlimit: 10;
      }

      .cls-4, .cls-6, .cls-7 {
        stroke: #fff;
      }

      .cls-4, .cls-5 {
        stroke-width: 2px;
      }

      .cls-5 {
        stroke: #62a843;
      }

      .cls-6 {
        opacity: 0.5;
      }

      .cls-8 {
        fill: #fff;
      }
    </style>
    <clipPath id="clip-path">
      <rect id="Rectangle_323" data-name="Rectangle 323" width="1920" height="1080" transform="translate(40.2)"/>
    </clipPath>
  </defs>
  <g id="Group_393" data-name="Group 393" class="cls-1" transform="translate(8002.8 -4449)">
    <g id="Group_392" data-name="Group 392" class="cls-2">
      <path id="Path_298" data-name="Path 298" class="cls-3" d="M467.4,1028.3c-1.8-.2-3-1.1-3-3a2.786,2.786,0,0,1,2.9-3.1,2.856,2.856,0,0,1,3.3,2.7C470.7,1026.9,469.4,1027.9,467.4,1028.3Z"/>
      <path id="Path_299" data-name="Path 299" class="cls-3" d="M467.4,1028.3c-1.8-.2-3-1.1-3-3a2.786,2.786,0,0,1,2.9-3.1,2.856,2.856,0,0,1,3.3,2.7C470.7,1026.9,469.4,1027.9,467.4,1028.3Z"/>
      <line id="Line_862" data-name="Line 862" class="cls-4" x1="50.4" y2="287.5" transform="translate(252.7 550.8)"/>
      <line id="Line_863" data-name="Line 863" class="cls-4" x1="396.2" y1="313.3" transform="translate(326.1 541.9)"/>
      <path id="Path_300" data-name="Path 300" class="cls-4" d="M780.3,818.1,754,655l-37.8-16.3-12.5-51.8,33.4-29.4L702.2,431.2"/>
      <path id="Path_301" data-name="Path 301" class="cls-5" d="M785.6,610.2"/>
      <line id="Line_864" data-name="Line 864" class="cls-4" x1="245.6" y1="213.3" transform="translate(771.8 648.4)"/>
      <line id="Line_865" data-name="Line 865" class="cls-4" x1="273.8" y2="81.4" transform="translate(415.1 619.6)"/>
      <line id="Line_866" data-name="Line 866" class="cls-4" x2="21.8" y2="116" transform="translate(639.3 983.6)"/>
      <line id="Line_867" data-name="Line 867" class="cls-4" x2="18.3" y2="97.2" transform="translate(614.4 851.1)"/>
      <line id="Line_868" data-name="Line 868" class="cls-4" x2="49.1" y2="261.1" transform="translate(556.6 543.8)"/>
      <line id="Line_869" data-name="Line 869" class="cls-4" x1="177.4" y1="94" transform="translate(416.7 718.5)"/>
      <line id="Line_870" data-name="Line 870" class="cls-4" x1="69" y1="36.6" transform="translate(634.7 834.1)"/>
      <path id="Path_302" data-name="Path 302" class="cls-4" d="M192,837.3,76.8,492.9l3.4-2.3,3.4-1.2,355,481"/>
      <path id="Path_303" data-name="Path 303" class="cls-4" d="M622.9,972.3l-121.4,36.2L483,961.6l35.8-88.2"/>
      <line id="Line_871" data-name="Line 871" class="cls-4" x1="40.8" y2="12.2" transform="translate(657.8 949.8)"/>
      <line id="Line_872" data-name="Line 872" class="cls-4" x1="27.2" y1="95.2" transform="translate(339.2 291.5)"/>
      <line id="Line_873" data-name="Line 873" class="cls-4" y1="75.5" x2="45.2" transform="translate(319.4 431.2)"/>
      <line id="Line_874" data-name="Line 874" class="cls-4" y1="14.2" x2="101.9" transform="translate(182.1 530.3)"/>
      <line id="Line_875" data-name="Line 875" class="cls-4" x1="61" y1="136.7" transform="translate(626.1 252.4)"/>
      <line id="Line_876" data-name="Line 876" class="cls-4" x1="107.9" y2="131.7" transform="translate(712.8 261.9)"/>
      <path id="Path_304" data-name="Path 304" class="cls-4" d="M899.5,490.3l87.7,127.5L785.6,605.2"/>
      <line id="Line_877" data-name="Line 877" class="cls-4" x1="30.2" y1="252.6" transform="translate(987.2 617.8)"/>
      <circle id="Ellipse_80" data-name="Ellipse 80" class="cls-4" cx="22.2" cy="22.2" r="22.2" transform="translate(351 386.8)"/>
      <circle id="Ellipse_81" data-name="Ellipse 81" class="cls-4" cx="22.2" cy="22.2" r="22.2" transform="translate(46.7 449.3)"/>
      <path id="Path_305" data-name="Path 305" class="cls-6" d="M868.3,200.6l31.2,276.2L823.7,801"/>
      <path id="Path_306" data-name="Path 306" class="cls-6" d="M717.4,417.4l179.5,70.7-283-20.7,8.5,48.3,87.2,66-1.3,24.4,14,17.7-124,135.6L322.2,810"/>
      <path id="Path_307" data-name="Path 307" class="cls-6" d="M329.5,520.6l139.6-39.9,4.1-51.5L512.8,410l-36-104.9L675,399"/>
      <line id="Line_878" data-name="Line 878" class="cls-6" x2="104.2" y2="124.1" transform="translate(188.3 385.4)"/>
      <line id="Line_879" data-name="Line 879" class="cls-6" x1="140.6" y2="171.5" transform="translate(476.8 133.6)"/>
      <line id="Line_880" data-name="Line 880" class="cls-6" y1="169.1" x2="108.2" transform="translate(622.9 638.4)"/>
      <path id="Path_308" data-name="Path 308" class="cls-6" d="M501.5,531,409.6,684l14.6,41.8L402,744l58.8,239.4,25.3,1.9L596.8,843.6"/>
      <line id="Line_881" data-name="Line 881" class="cls-7" x1="125.1" y2="105.2" transform="translate(771.8 488.1)"/>
      <line id="Line_882" data-name="Line 882" class="cls-6" x1="139.9" y1="51.3" transform="translate(0.2 849.4)"/>
      <line id="Line_883" data-name="Line 883" class="cls-6" x1="84.2" y1="23.4" transform="translate(345.2 975)"/>
      <circle id="Ellipse_82" data-name="Ellipse 82" class="cls-4" cx="22.2" cy="22.2" r="22.2" transform="translate(285 504.8)"/>
      <circle id="Ellipse_83" data-name="Ellipse 83" class="cls-4" cx="22.2" cy="22.2" r="22.2" transform="translate(590.3 805)"/>
      <circle id="Ellipse_84" data-name="Ellipse 84" class="cls-4" cx="22.2" cy="22.2" r="22.2" transform="translate(673.7 386.8)"/>
      <g id="Group_380" data-name="Group 380">
        <path id="Path_309" data-name="Path 309" class="cls-8" d="M512.2,1004.3a49.1,49.1,0,1,0-49.1,49.1A49.122,49.122,0,0,0,512.2,1004.3Zm-77.6,14.6a90.176,90.176,0,0,1,8.9-30.5c.9-1.8,2-2.4,3.8-1.2a10.9,10.9,0,0,0,6.1,1.3h21.5c1.9,0,3.8,0,5.4-1,2.2-1.4,3.3-.6,4.3,1.4a88.369,88.369,0,0,1,8.8,30.5c.5,4.4-1.8,6.4-6.1,5.3a48.937,48.937,0,0,1-9-3.4c-9.7-4.7-19.3-4.7-28.9,0a47.569,47.569,0,0,1-8.6,3.3C436.4,1025.7,434.6,1024.1,434.6,1018.9Z"/>
        <path id="Path_310" data-name="Path 310" class="cls-8" d="M474.2,1002.2a3.171,3.171,0,0,0-3.2-3c-2,0-3.1,1.5-3.1,3.4.1,1.9,1.4,2.8,3.3,2.7C473.1,1005.3,473.9,1003.9,474.2,1002.2Z"/>
        <path id="Path_311" data-name="Path 311" class="cls-8" d="M480.5,1002.5a2.834,2.834,0,0,0,3.1,2.9c1.9,0,2.8-1.2,3-3-.4-1.9-1.4-3.3-3.4-3.2C481.4,999.2,480.5,1000.7,480.5,1002.5Z"/>
        <path id="Path_312" data-name="Path 312" class="cls-8" d="M477.1,999c1.8.2,3-.9,3.2-2.8-.1-1.9-.9-3.2-2.8-3.3s-3,1.1-3.3,2.9A2.771,2.771,0,0,0,477.1,999Z"/>
        <path id="Path_313" data-name="Path 313" class="cls-8" d="M480.3,1008.5a3.083,3.083,0,0,0-3.3-3c-2.1,0-2.8,1.4-2.8,3.2a2.861,2.861,0,0,0,3.1,3C479.1,1011.7,480.2,1010.6,480.3,1008.5Z"/>
        <path id="Path_314" data-name="Path 314" class="cls-8" d="M453.4,1007.4v-2.2h2.2a2.3,2.3,0,0,0,0-4.6h-2.2v-2.2a2.3,2.3,0,0,0-4.6,0v2.2h-2.2a2.3,2.3,0,0,0,0,4.6h2.2v2.2a2.263,2.263,0,0,0,2.3,2.3A2.326,2.326,0,0,0,453.4,1007.4Z"/>
      </g>
      <path id="Path_315" data-name="Path 315" class="cls-4" d="M640.2,948.3c9.7,0,17.5,7.4,17.6,16.7a17.042,17.042,0,0,1-17.3,17.5c-10.9,0-17.2-7.6-17.5-17.2C622.6,955.7,630.5,948.3,640.2,948.3Z"/>
      <g id="Group_381" data-name="Group 381">
        <path id="Path_316" data-name="Path 316" class="cls-8" d="M757.6,927.2c.1,9.2,1.8,18.2,4,27.1.5,2,1.7,2.7,3.8,2.7,7.4-.1,14.9-.1,22.3,0,2.5,0,3.6-.9,3.5-3.5-.1-4.5,0-8.9,0-13.4,0-4.3-.1-8.7,0-13,.1-2.7-.8-3.8-3.6-3.7q-13.2.15-26.4,0C758.4,923.4,757.6,924.6,757.6,927.2Z"/>
        <path id="Path_317" data-name="Path 317" class="cls-8" d="M865,884.5c-4.1,0-8.2.1-12.2,0-2.8-.1-4,.5-3.4,3.8a133.693,133.693,0,0,1,2.5,22.8c0,2.4,1.1,3.3,3.4,3.2,3.8-.1,7.7,0,11.5,0,4,0,7.9-.1,11.9,0,2.5,0,3.3-1.2,2.9-3.5a91.346,91.346,0,0,0-6.6-23.5c-1.4-3.1-2.6-5.6-6.6-3.1A7.756,7.756,0,0,1,865,884.5Z"/>
        <path id="Path_318" data-name="Path 318" class="cls-8" d="M747.8,911.1a133.7,133.7,0,0,1,2.5-22.8c.5-2.9-.1-3.9-3-3.8-6.1.1-12.1.1-18.2,0a4.05,4.05,0,0,0-4.3,2.7,94.44,94.44,0,0,0-6.7,23.9c-.3,2.2.6,3.2,2.8,3.2,4-.1,7.9,0,11.9,0,3.8,0,7.7-.1,11.5,0C746.6,914.3,747.7,913.6,747.8,911.1Z"/>
        <path id="Path_319" data-name="Path 319" class="cls-8" d="M839.3,910.2c0-7.6-1.3-15-2.6-22.4-.4-2.3-1.5-3.3-4-3.3q-11.7.15-23.4,0c-2.5,0-3.6.8-3.6,3.4.1,7.7.1,15.4,0,23,0,2.7,1.1,3.4,3.6,3.4,4.3-.1,8.7,0,13,0s8.7-.1,13,.1C838.5,914.5,839.3,913.2,839.3,910.2Z"/>
        <path id="Path_320" data-name="Path 320" class="cls-8" d="M793.9,910.7c-.1-7.5-.1-15.1,0-22.7,0-2.4-.7-3.6-3.4-3.6-7.9.1-15.8.1-23.8,0-2.3,0-3.4.9-3.8,3.1a138.594,138.594,0,0,0-2.7,23.2c0,2.8,1.2,3.7,3.8,3.6,4.3-.1,8.7,0,13,0s8.7-.1,13,0C792.7,914.4,793.9,913.6,793.9,910.7Z"/>
        <path id="Path_321" data-name="Path 321" class="cls-8" d="M793.9,868.8c-.1-3.7,0-7.4,0-11.1,0-3.6-.1-7.2,0-10.8.1-3.2-1.3-3.3-3.6-2.1-10.1,5.5-16.7,14.1-21.4,24.4-.9,1.9-.3,2.7,1.9,2.7q10.05-.15,20.1,0C793,871.9,793.9,871,793.9,868.8Z"/>
        <path id="Path_322" data-name="Path 322" class="cls-8" d="M805.8,857.6c0,3.7.1,7.4,0,11.1,0,2.2.8,3.2,3,3.2,6.7-.1,13.4,0,20,0,2.1,0,2.8-.8,1.9-2.7-4.8-10.3-11.4-19.1-21.7-24.6-2.4-1.3-3.4-.5-3.3,2.2C805.8,850.4,805.7,854,805.8,857.6Z"/>
        <path id="Path_323" data-name="Path 323" class="cls-8" d="M863.2,868.5a76.661,76.661,0,0,0-20.6-17.9,62.5,62.5,0,0,0-13.2-6.3,85.052,85.052,0,0,1,15,25.6c.6,1.7,2.1,1.9,3.6,1.9h13.7c.9,0,2.2.4,2.7-.6C865.2,870,863.8,869.3,863.2,868.5Z"/>
        <path id="Path_324" data-name="Path 324" class="cls-8" d="M755.2,869.8a88.739,88.739,0,0,1,14.7-25.2c-4.8,1.1-8.2,3.3-11.6,5.3a75.232,75.232,0,0,0-22.6,19.4c-1.4,1.7-1.2,2.6,1.1,2.7H752A3.161,3.161,0,0,0,755.2,869.8Z"/>
        <path id="Path_325" data-name="Path 325" class="cls-8" d="M793.8,995.9V975.1c0-1.8-.7-2.8-2.6-2.8H772.6c-1.7,0-2.3.6-1.5,2.2a55.353,55.353,0,0,0,20.1,22.8C792.9,998.4,793.8,997.9,793.8,995.9Z"/>
        <path id="Path_326" data-name="Path 326" class="cls-8" d="M748.6,953.2a130.073,130.073,0,0,1-3.6-26.4c-.1-2.3-.9-3.4-3.3-3.3-3.8.1-7.7,0-11.5,0-4,0-7.9.1-11.9,0-2.5-.1-3.3,1.1-3,3.4,1.5,9.5,3.9,18.6,8.4,27.2a4.782,4.782,0,0,0,5,2.9c5.6-.1,11.2-.2,16.7,0C748.5,957.1,749.4,956.3,748.6,953.2Z"/>
        <path id="Path_327" data-name="Path 327" class="cls-8" d="M805.7,976.1c.1,3,0,5.9,0,8.9v10.4c0,2.6.9,3.1,3.1,1.7,8.5-5.6,14.6-13.2,19.4-22,1.2-2.3.3-2.8-1.9-2.8q-8.55.15-17.1,0C806.4,972.2,805.6,973.4,805.7,976.1Z"/>
        <path id="Path_328" data-name="Path 328" class="cls-8" d="M921.3,920.2A121.3,121.3,0,1,0,800,1041.5,121.29,121.29,0,0,0,921.3,920.2Zm-216-1.4c.6-50.6,42.7-93.2,94.5-92.3,51.6-.9,94.6,41.9,94.6,93.8,0,51.4-42.9,95.6-98,93.8C747.4,1012.5,704.7,972,705.3,918.8Z"/>
        <path id="Path_329" data-name="Path 329" class="cls-8" d="M753.5,972.3h-13c-.8,0-1.9-.3-2.4.6-.7,1.2.5,1.8,1.2,2.4A77.794,77.794,0,0,0,757.4,990c4,2.4,8.2,4.2,12.3,6.3-4.8-7.3-9.3-14.3-12.5-22.1C756.5,972.5,755,972.3,753.5,972.3Z"/>
        <path id="Path_330" data-name="Path 330" class="cls-8" d="M840.8,977.8a18.414,18.414,0,0,1-2.4,4.6,92.349,92.349,0,0,1-8.6,12.8c.4.3.5.5.6.4,12-4.5,22-11.8,30.6-21,1.3-1.4.7-2.2-1-2.3-3.5-.1-7,.2-10.4-.1C845,971.8,841.9,972.8,840.8,977.8Z"/>
        <path id="Path_331" data-name="Path 331" class="cls-8" d="M836.1,954.6a163.92,163.92,0,0,0,3.4-24.2c.2-3.8-1.1-4.3-4.2-4.2-4.1.2-8.2,0-12.3,0-4.3,0-8.7.1-13,0-2.9-.1-4.3.7-4.2,4,.2,8.6.2,17.1,0,25.7-.1,3.2,1.2,4,4.2,4,6.6-.2,13.2-.3,19.7.1C833.8,960,835.3,958.2,836.1,954.6Z"/>
        <path id="Path_332" data-name="Path 332" class="cls-8" d="M872.4,958c4.9-8.9,7.6-18.5,9.1-28.5.3-2.2-.4-3.3-2.8-3.3-4,.1-7.9,0-11.9,0-3.8,0-7.7.1-11.5,0-2.6-.1-3.4,1-3.5,3.5a135.383,135.383,0,0,1-3.5,26.1c-.7,2.8-.4,4,2.9,4,5.9,0,11.9-.6,17.8.4C870.9,960.5,871.7,959.4,872.4,958Z"/>
      </g>
      <g id="Group_382" data-name="Group 382">
        <path id="Path_333" data-name="Path 333" class="cls-8" d="M762.4,594.2a18.117,18.117,0,0,0-18.2-18.1c-9.4,0-17.5,8.4-17.5,18.1a18.186,18.186,0,0,0,17.8,18.2C754.1,612.4,762.4,604.1,762.4,594.2Z"/>
        <path id="Path_334" data-name="Path 334" class="cls-8" d="M808.3,606.1A62.3,62.3,0,1,0,746,668.4,62.309,62.309,0,0,0,808.3,606.1Zm-65.9,38c-10.6-13.9-20.4-28.3-25.4-45.4a14.518,14.518,0,0,1-.7-4.9c.1-13.6,11-26,23.9-27.5,15.3-1.8,28.2,7.1,31.7,21.2,1.8,7.2-.2,13.5-3,19.8-5.8,13.1-13.7,24.9-22.3,36.3C745.2,645.6,744,646.3,742.4,644.1Z"/>
      </g>
      <g id="Group_383" data-name="Group 383">
        <path id="Path_335" data-name="Path 335" class="cls-8" d="M588.2,491.5c1.5-14.1.3-28.2.6-42.3,0-.7.1-1.7-.8-1.9s-1.5.7-2.2,1.2c-13,10-26.1,20.1-39.1,30.1-3.6,2.7-5.8,2.8-9.4.3-2.8-2-5.5-4.2-8.3-6.3-11-8.4-22-16.9-33.6-25.8-.1,1.9-.2,3-.2,4v39c0,5.2,1.8,7.3,7.1,7.3q39.75.15,79.5,0C585.8,497.2,587.8,495.4,588.2,491.5Z"/>
        <path id="Path_336" data-name="Path 336" class="cls-8" d="M544.7,467.4c7.4-5.8,14.9-11.5,22.3-17.3,5-3.9,10-7.8,15.7-12.1H501.2a20.091,20.091,0,0,0,1.9,2c12,9.2,24,18.3,35.9,27.6C541.3,469.4,542.7,469,544.7,467.4Z"/>
        <path id="Path_337" data-name="Path 337" class="cls-8" d="M633.2,467.9A91.1,91.1,0,1,0,542.1,559,91.117,91.117,0,0,0,633.2,467.9Zm-132.1,39c-9.9,0-16.3-6.2-16.4-16.2q-.15-23.25,0-46.5c.1-10.3,6.5-16.8,16.8-16.9,26.8-.1,53.5-.1,80.3,0,10.2,0,16.7,6.7,16.7,16.9v45.7c0,11.1-5.9,16.9-17.1,16.9H541.6C528.1,506.9,514.6,507,501.1,506.9Z"/>
      </g>
      <path id="Path_338" data-name="Path 338" class="cls-8" d="M437.4,710.3A43.7,43.7,0,1,0,393.7,754,43.681,43.681,0,0,0,437.4,710.3Zm-61.8-16.1c-.3-1.2.8-1.9,1.8-2.6a2.594,2.594,0,0,1,2.1-.2,40.029,40.029,0,0,1,35.9,32.9c.4,2.1-.1,3.7-2,4.1-1.9.5-2.9-1.3-3.2-2.9a43.068,43.068,0,0,0-5.6-13.7c-5.8-9.1-14-14.1-24.7-14.9C377.9,696.9,376.2,696.3,375.6,694.2Zm.2,29.5c0-3.5,2.3-5.9,5.7-5.9a5.863,5.863,0,0,1,6.2,5.9,5.764,5.764,0,0,1-5.8,5.9A5.669,5.669,0,0,1,375.8,723.7Zm20.7,3c-2.6-9.3-7.6-15.8-18.1-16.3-1.6-.1-3.2-.9-3-2.6.4-2.9,2.9-2.5,5.2-2.5,7.3.7,12.7,4.7,16.8,10.7a26.306,26.306,0,0,1,4.2,9.5c.4,1.9.5,4.1-1.8,4.7C397.4,730.7,397,728.5,396.5,726.7Z"/>
      <g id="Group_384" data-name="Group 384">
        <path id="Path_339" data-name="Path 339" class="cls-8" d="M209.8,933.3c-.1-5.2,0-10.4,0-15.6V901c0-2.1-.6-3.3-2.9-3.3-7.5.1-15.1,0-22.6,0a2.389,2.389,0,0,0-2.7,2.4c-1,11.1-2,22.1-3,33.2-.3,2.9.8,4,3.7,4,7.9-.1,15.8-.1,23.8,0C209,937.3,209.9,936.1,209.8,933.3Z"/>
        <path id="Path_340" data-name="Path 340" class="cls-8" d="M333.6,946.1c-2.4-2.9-5.3-2.6-6.9.9a15.558,15.558,0,0,0-1.6,8,13.168,13.168,0,0,0,2,8.4c1.6,2.8,4.3,3,6.3.6C336.7,960.1,336.8,950.1,333.6,946.1Z"/>
        <path id="Path_341" data-name="Path 341" class="cls-8" d="M249,937.2c3.2,0,4.1-1.1,3.8-4.2-1.1-10.4-2-20.9-2.8-31.4-.2-2.7-1-4.1-3.9-4-8.4.1-16.8.1-25.3,0-2.8,0-3.6,1.2-3.6,3.8.1,5.2,0,10.4,0,15.6,0,5.3.1,10.7,0,16-.1,2.9.7,4.2,4,4.2C230.4,937.1,239.7,937.1,249,937.2Z"/>
        <path id="Path_342" data-name="Path 342" class="cls-8" d="M171.1,934.5c1-11.6,2.1-23.1,3.1-34.7.1-.6.3-1.3-.4-1.6s-1.2.1-1.7.5a21.6,21.6,0,0,0-5.4,7c-4,7.8-6.3,16.1-8.4,24.6-1.7,7-1.7,7,5.5,7h4.1C169.8,937.2,170.9,936.6,171.1,934.5Z"/>
        <path id="Path_343" data-name="Path 343" class="cls-8" d="M257.3,900.9c1.8,9,3.3,18,5,27,1.7,9.3,1.8,9.3,11.2,9.3h7.1c2.1,0,2.9-.8,2.5-3-1.4-8.5-2.8-16.9-6.6-24.7-3.2-6.6-7.1-12.7-15.8-12.6C257.7,897,256.7,897.8,257.3,900.9Z"/>
        <path id="Path_344" data-name="Path 344" class="cls-8" d="M360.6,946.6a121.3,121.3,0,1,0-121.3,121.3A121.29,121.29,0,0,0,360.6,946.6ZM162.8,994.1A26.378,26.378,0,0,1,142.3,973a16.348,16.348,0,0,1,.4-7.3c4-14.6,8-29.2,12-43.7a48.878,48.878,0,0,0,1.6-7.6c1.7-14.8,12.7-24.6,27.7-24.7,12.5-.1,25,0,37.6,0h35.3c15.8,0,24.4,6.1,29.3,21.2,1.8,5.4,3.2,10.9,4.6,16.5.6,2.5,2,3.5,4.3,3.9l34.8,5.4c3.6.6,7,1.3,9.6,4.2,3.1,3.4,4.2,7.1,2.7,11.6-2.8,8.3-5.6,16.7-8.3,25a31.977,31.977,0,0,0-1.5,6.1c-.9,5.9-5.3,10.4-10.6,11-2.6.3-4-.3-4.2-3.5A26.649,26.649,0,0,0,277,970a25.193,25.193,0,0,0-12.2,18.2,21.979,21.979,0,0,0-.6,3.7c-.1,2.1-1.1,2.8-3.1,2.8H223.9c-2.7,0-2.8-1.5-3-3.6-1.1-11.7-8.9-21.3-19.6-24a26.7,26.7,0,0,0-33.8,23.8C167.1,994.1,166,994.8,162.8,994.1Zm11.4-1.6c-.4-10.8,9.1-19.7,20-19.7s20.1,9.2,19.9,19.9c-.2,10.9-9.2,20.5-19.9,20C182.5,1012.2,174.6,1004.7,174.2,992.5Zm97,.4a19.851,19.851,0,0,1,39.7-.4c.1,11-8.9,20.6-19.9,20.3C279.7,1012.4,271.4,1004.7,271.2,992.9Z"/>
      </g>
      <g id="Group_385" data-name="Group 385">
        <circle id="Ellipse_85" data-name="Ellipse 85" class="cls-8" cx="13.6" cy="13.6" r="13.6" transform="translate(325.6 277.9)"/>
        <circle id="Ellipse_86" data-name="Ellipse 86" class="cls-8" cx="13.4" cy="13.4" r="13.4" transform="translate(463.4 291.7)"/>
        <circle id="Ellipse_87" data-name="Ellipse 87" class="cls-8" cx="13.6" cy="13.6" r="13.6" transform="translate(612.5 238.8)"/>
        <circle id="Ellipse_88" data-name="Ellipse 88" class="cls-8" cx="13.6" cy="13.6" r="13.6" transform="translate(807.1 248.3)"/>
        <circle id="Ellipse_89" data-name="Ellipse 89" class="cls-8" cx="13.6" cy="13.6" r="13.6" transform="translate(885.9 476.7)"/>
        <circle id="Ellipse_90" data-name="Ellipse 90" class="cls-8" cx="13.6" cy="13.6" r="13.6" transform="translate(973.6 604.2)"/>
        <circle id="Ellipse_91" data-name="Ellipse 91" class="cls-8" cx="8.7" cy="8.7" r="8.7" transform="translate(859.6 183.2)"/>
        <circle id="Ellipse_92" data-name="Ellipse 92" class="cls-8" cx="8.7" cy="8.7" r="8.7" transform="translate(608.7 124.9)"/>
        <circle id="Ellipse_93" data-name="Ellipse 93" class="cls-8" cx="13.6" cy="13.6" r="13.6" transform="translate(505.2 859.8)"/>
        <circle id="Ellipse_94" data-name="Ellipse 94" class="cls-8" cx="13.6" cy="13.6" r="13.6" transform="translate(584.7 745.8)"/>
        <circle id="Ellipse_95" data-name="Ellipse 95" class="cls-8" cx="13.6" cy="13.6" r="13.6" transform="translate(255.2 725.8)"/>
        <circle id="Ellipse_96" data-name="Ellipse 96" class="cls-8" cx="13.6" cy="13.6" r="13.6" transform="translate(309.6 798.2)"/>
        <circle id="Ellipse_97" data-name="Ellipse 97" class="cls-8" cx="13.6" cy="13.6" r="13.6" transform="translate(168.5 530.9)"/>
        <circle id="Ellipse_98" data-name="Ellipse 98" class="cls-8" cx="8.7" cy="8.7" r="8.7" transform="translate(179.6 376.7)"/>
      </g>
      <line id="Line_884" data-name="Line 884" class="cls-4" x1="50.4" y2="287.5" transform="translate(1236.4 550.8)"/>
      <line id="Line_885" data-name="Line 885" class="cls-4" x1="396.2" y1="313.3" transform="translate(1309.8 541.9)"/>
      <path id="Path_345" data-name="Path 345" class="cls-4" d="M1764.1,818.1,1737.7,655l-55.5-18.7,3.3-56.6,35.3-22.2-34.9-126.3"/>
      <path id="Path_346" data-name="Path 346" class="cls-5" d="M1769.4,610.2"/>
      <line id="Line_886" data-name="Line 886" class="cls-4" x1="258.7" y1="342.1" transform="translate(1755.5 648.4)"/>
      <line id="Line_887" data-name="Line 887" class="cls-4" x1="273.7" y2="81.4" transform="translate(1398.9 619.6)"/>
      <line id="Line_888" data-name="Line 888" class="cls-4" x2="21.8" y2="116" transform="translate(1623 983.6)"/>
      <line id="Line_889" data-name="Line 889" class="cls-4" x2="18.3" y2="97.2" transform="translate(1598.1 851.1)"/>
      <line id="Line_890" data-name="Line 890" class="cls-4" x2="49.1" y2="261.1" transform="translate(1540.3 543.8)"/>
      <line id="Line_891" data-name="Line 891" class="cls-4" x1="164.5" y1="87.2" transform="translate(1413.3 725.3)"/>
      <line id="Line_892" data-name="Line 892" class="cls-4" x1="69.1" y1="36.6" transform="translate(1618.4 834.1)"/>
      <path id="Path_347" data-name="Path 347" class="cls-4" d="M1175.7,837.3,1060.5,492.9l3.4-2.3,3.4-1.2,355,481"/>
      <line id="Line_893" data-name="Line 893" class="cls-4" y1="88.2" x2="35.9" transform="translate(1466.7 873.4)"/>
      <line id="Line_894" data-name="Line 894" class="cls-4" x1="111.4" y2="33.2" transform="translate(1495.3 972.3)"/>
      <line id="Line_895" data-name="Line 895" class="cls-4" x1="40.9" y2="12.2" transform="translate(1641.5 949.8)"/>
      <line id="Line_896" data-name="Line 896" class="cls-4" x1="27.1" y1="95.2" transform="translate(1323 291.5)"/>
      <line id="Line_897" data-name="Line 897" class="cls-4" y1="75.5" x2="45.2" transform="translate(1303.2 431.2)"/>
      <line id="Line_898" data-name="Line 898" class="cls-4" y1="14.2" x2="101.9" transform="translate(1165.8 530.3)"/>
      <line id="Line_899" data-name="Line 899" class="cls-4" x1="61.1" y1="136.7" transform="translate(1609.8 252.4)"/>
      <line id="Line_900" data-name="Line 900" class="cls-4" x1="107.9" y2="131.7" transform="translate(1696.5 261.9)"/>
      <path id="Path_348" data-name="Path 348" class="cls-4" d="M1883.3,490.3,1971,617.8l-201.6-12.6"/>
      <line id="Line_901" data-name="Line 901" class="cls-4" x1="34.5" y1="288.8" transform="translate(1971 617.8)"/>
      <circle id="Ellipse_99" data-name="Ellipse 99" class="cls-4" cx="22.2" cy="22.2" r="22.2" transform="translate(1334.7 386.8)"/>
      <circle id="Ellipse_100" data-name="Ellipse 100" class="cls-4" cx="22.2" cy="22.2" r="22.2" transform="translate(1030.5 449.3)"/>
      <path id="Path_349" data-name="Path 349" class="cls-6" d="M1852,200.6l31.3,276.2L1807.4,801"/>
      <path id="Path_350" data-name="Path 350" class="cls-6" d="M1701.1,417.4l179.5,70.7-283-20.7,8.5,48.3,79.8,60.4-3.7,34.1,9.4,29.3L1582,759.4,1305.9,810"/>
      <path id="Path_351" data-name="Path 351" class="cls-6" d="M1313.2,520.6l139.6-39.9,4.1-51.5,39.7-19.2-36-104.9L1658.7,399"/>
      <line id="Line_902" data-name="Line 902" class="cls-6" x2="104.3" y2="124.1" transform="translate(1172 385.4)"/>
      <line id="Line_903" data-name="Line 903" class="cls-6" x1="140.5" y2="171.5" transform="translate(1460.6 133.6)"/>
      <line id="Line_904" data-name="Line 904" class="cls-6" y1="169.1" x2="108.2" transform="translate(1606.6 638.4)"/>
      <line id="Line_905" data-name="Line 905" class="cls-6" y1="131.4" x2="102.6" transform="translate(1477.9 843.6)"/>
      <path id="Path_352" data-name="Path 352" class="cls-6" d="M1485.2,531l-91.9,153,22,17,2.8,16.2-9.8,16.4L1385.7,744l53.4,217.6"/>
      <line id="Line_906" data-name="Line 906" class="cls-7" x1="107.4" y2="90.3" transform="translate(1773.2 488.1)"/>
      <line id="Line_907" data-name="Line 907" class="cls-6" x1="77.1" y1="21.4" transform="translate(1328.9 975)"/>
      <circle id="Ellipse_101" data-name="Ellipse 101" class="cls-4" cx="22.2" cy="22.2" r="22.2" transform="translate(1268.7 504.8)"/>
      <circle id="Ellipse_102" data-name="Ellipse 102" class="cls-4" cx="22.2" cy="22.2" r="22.2" transform="translate(1574 805)"/>
      <circle id="Ellipse_103" data-name="Ellipse 103" class="cls-4" cx="22.2" cy="22.2" r="22.2" transform="translate(1657.4 386.8)"/>
      <g id="Group_386" data-name="Group 386">
        <path id="Path_353" data-name="Path 353" class="cls-8" d="M1344.1,946.7A121.3,121.3,0,1,0,1222.8,1068C1289.8,1067.9,1344.1,1013.6,1344.1,946.7Zm-191.6,35.9c3-25.3,9.5-51.2,22-75.4,2.3-4.4,5-5.8,9.5-3.1,4.6,2.9,9.8,3.1,15,3.1,17.7-.1,35.5-.1,53.2,0,4.6,0,9.4,0,13.4-2.5,5.4-3.3,8-1.5,10.6,3.5,12.1,23.7,18.6,49.1,21.7,75.3,1.3,10.8-4.4,15.7-14.9,13.1a112.54,112.54,0,0,1-22.2-8.4c-23.9-11.5-47.5-11.6-71.4,0a117.122,117.122,0,0,1-21.3,8.2C1156.9,999.4,1152.5,995.6,1152.5,982.6Z"/>
        <path id="Path_354" data-name="Path 354" class="cls-8" d="M1250.2,941.4c-.7-4.6-3.8-7.4-8-7.4-4.9,0-7.8,3.6-7.6,8.4.2,4.6,3.5,6.9,8.1,6.8C1247.6,949,1249.4,945.7,1250.2,941.4Z"/>
        <path id="Path_355" data-name="Path 355" class="cls-8" d="M1265.8,942.1c.1,4.7,3.3,7.1,7.8,7.1,4.8.1,6.9-3,7.5-7.4-.9-4.8-3.6-8-8.5-7.8C1267.9,934.1,1265.7,937.7,1265.8,942.1Z"/>
        <path id="Path_356" data-name="Path 356" class="cls-8" d="M1257.4,933.6c4.6.5,7.4-2.2,7.9-6.8-.2-4.6-2.1-7.9-6.9-8.2-4.7-.3-7.5,2.8-8,7.1C1249.8,930.5,1253,933.2,1257.4,933.6Z"/>
        <path id="Path_357" data-name="Path 357" class="cls-8" d="M1265.3,957.1c-.6-4.5-3.1-7.4-8.2-7.4s-6.9,3.5-6.9,7.8c.1,4.6,3.2,7.4,7.6,7.5C1262.4,965,1265,962.2,1265.3,957.1Z"/>
        <path id="Path_358" data-name="Path 358" class="cls-8" d="M1198.9,954.2v-5.5h5.5a5.7,5.7,0,0,0,5.7-5.7,5.635,5.635,0,0,0-5.7-5.7h-5.5v-5.5a5.7,5.7,0,1,0-11.4,0v5.5H1182a5.7,5.7,0,0,0-5.7,5.7,5.635,5.635,0,0,0,5.7,5.7h5.5v5.5a5.7,5.7,0,1,0,11.4,0Z"/>
      </g>
      <path id="Path_359" data-name="Path 359" class="cls-4" d="M1623.9,948.3c9.7,0,17.5,7.4,17.6,16.7a17.042,17.042,0,0,1-17.3,17.5c-10.9,0-17.2-7.6-17.5-17.2C1606.3,955.7,1614.2,948.3,1623.9,948.3Z"/>
      <g id="Group_387" data-name="Group 387">
        <circle id="Ellipse_104" data-name="Ellipse 104" class="cls-8" cx="13.6" cy="13.6" r="13.6" transform="translate(1309.4 277.9)"/>
        <circle id="Ellipse_105" data-name="Ellipse 105" class="cls-8" cx="13.4" cy="13.4" r="13.4" transform="translate(1447.2 291.7)"/>
        <circle id="Ellipse_106" data-name="Ellipse 106" class="cls-8" cx="13.6" cy="13.6" r="13.6" transform="translate(1596.2 238.8)"/>
        <circle id="Ellipse_107" data-name="Ellipse 107" class="cls-8" cx="13.6" cy="13.6" r="13.6" transform="translate(1790.8 248.3)"/>
        <circle id="Ellipse_108" data-name="Ellipse 108" class="cls-8" cx="13.6" cy="13.6" r="13.6" transform="translate(1869.7 476.7)"/>
        <circle id="Ellipse_109" data-name="Ellipse 109" class="cls-8" cx="13.6" cy="13.6" r="13.6" transform="translate(1957.4 604.2)"/>
        <circle id="Ellipse_110" data-name="Ellipse 110" class="cls-8" cx="8.7" cy="8.7" r="8.7" transform="translate(1843.3 183.2)"/>
        <circle id="Ellipse_111" data-name="Ellipse 111" class="cls-8" cx="8.7" cy="8.7" r="8.7" transform="translate(1592.4 124.9)"/>
        <circle id="Ellipse_112" data-name="Ellipse 112" class="cls-8" cx="13.6" cy="13.6" r="13.6" transform="translate(1489 859.8)"/>
        <circle id="Ellipse_113" data-name="Ellipse 113" class="cls-8" cx="13.6" cy="13.6" r="13.6" transform="translate(1568.4 745.8)"/>
        <circle id="Ellipse_114" data-name="Ellipse 114" class="cls-8" cx="13.6" cy="13.6" r="13.6" transform="translate(1238.9 725.8)"/>
        <circle id="Ellipse_115" data-name="Ellipse 115" class="cls-8" cx="13.6" cy="13.6" r="13.6" transform="translate(1293.3 798.2)"/>
        <circle id="Ellipse_116" data-name="Ellipse 116" class="cls-8" cx="13.6" cy="13.6" r="13.6" transform="translate(1152.2 530.9)"/>
        <circle id="Ellipse_117" data-name="Ellipse 117" class="cls-8" cx="8.7" cy="8.7" r="8.7" transform="translate(1163.3 376.7)"/>
      </g>
      <g id="Group_388" data-name="Group 388">
        <path id="Path_360" data-name="Path 360" class="cls-8" d="M1366.9,705.5c-.1-1.9,0-3.7,0-5.6v-6c0-.7-.2-1.2-1.1-1.2h-8.1c-.6,0-.9.2-1,.9-.4,4-.7,8-1.1,11.9-.1,1,.3,1.4,1.3,1.4,2.8-.1,5.7-.1,8.5,0C1366.6,707,1366.9,706.6,1366.9,705.5Z"/>
        <path id="Path_361" data-name="Path 361" class="cls-8" d="M1411.4,710.2c-.9-1-1.9-.9-2.5.3a5.611,5.611,0,0,0-.6,2.9,5.141,5.141,0,0,0,.7,3,1.288,1.288,0,0,0,2.3.2C1412.5,715.2,1412.6,711.6,1411.4,710.2Z"/>
        <path id="Path_362" data-name="Path 362" class="cls-8" d="M1381,707c1.1,0,1.5-.4,1.4-1.5-.4-3.8-.7-7.5-1-11.3-.1-1-.4-1.5-1.4-1.4h-9.1c-1,0-1.3.4-1.3,1.4v11.3c0,1.1.3,1.5,1.4,1.5C1374.3,706.9,1377.6,706.9,1381,707Z"/>
        <path id="Path_363" data-name="Path 363" class="cls-8" d="M1353,706c.4-4.2.7-8.3,1.1-12.5,0-.2.1-.5-.2-.6-.2-.1-.4,0-.6.2a9.2,9.2,0,0,0-1.9,2.5,35.214,35.214,0,0,0-3,8.8c-.6,2.5-.6,2.5,2,2.5h1.5C1352.5,707,1352.9,706.8,1353,706Z"/>
        <path id="Path_364" data-name="Path 364" class="cls-8" d="M1384,693.9c.6,3.2,1.2,6.5,1.8,9.7.6,3.3.6,3.3,4,3.3h2.5c.7,0,1-.3.9-1.1a30.924,30.924,0,0,0-2.4-8.9c-1.2-2.4-2.5-4.6-5.7-4.5C1384.1,692.5,1383.7,692.8,1384,693.9Z"/>
        <path id="Path_365" data-name="Path 365" class="cls-8" d="M1421.1,710.3a43.7,43.7,0,1,0-43.7,43.7A43.681,43.681,0,0,0,1421.1,710.3ZM1350,727.4a9.378,9.378,0,0,1-7.4-7.6,4.572,4.572,0,0,1,.2-2.6c1.4-5.2,2.9-10.5,4.3-15.7a26.146,26.146,0,0,0,.6-2.7,9.7,9.7,0,0,1,10-8.9h26.2c5.7,0,8.8,2.2,10.5,7.6.6,1.9,1.2,3.9,1.7,5.9a1.6,1.6,0,0,0,1.5,1.4c4.2.6,8.4,1.3,12.5,1.9a5.823,5.823,0,0,1,3.5,1.5,4.077,4.077,0,0,1,1,4.2l-3,9a14.194,14.194,0,0,0-.5,2.2,4.458,4.458,0,0,1-3.8,3.9c-1,.1-1.4-.1-1.5-1.2a9.577,9.577,0,0,0-14.6-7.6,9.338,9.338,0,0,0-4.4,6.6,5.854,5.854,0,0,0-.2,1.3c0,.7-.4,1-1.1,1h-13.4c-1,0-1-.6-1.1-1.3a9.678,9.678,0,0,0-19.3,0C1351.5,727.4,1351.1,727.7,1350,727.4Zm4.1-.5a7.149,7.149,0,0,1,7.2-7.1,7.281,7.281,0,0,1,7.2,7.1c-.1,3.9-3.3,7.4-7.2,7.2A6.989,6.989,0,0,1,1354.1,726.9Zm34.9.1a7.151,7.151,0,0,1,14.3-.2,7.236,7.236,0,0,1-7.1,7.3A6.964,6.964,0,0,1,1389,727Z"/>
      </g>
      <path id="Path_366" data-name="Path 366" class="cls-8" d="M1616.9,467.9a91.1,91.1,0,1,0-91.1,91.1A91.117,91.117,0,0,0,1616.9,467.9Zm-129-33.6c-.7-2.6,1.8-4.1,3.7-5.4a5.853,5.853,0,0,1,4.5-.5A83.567,83.567,0,0,1,1571,497c.8,4.3-.1,7.7-4.1,8.6-4,1-6-2.7-6.7-6a88.725,88.725,0,0,0-11.6-28.5c-12-19-29.2-29.4-51.6-31C1492.7,439.8,1489.1,438.6,1487.9,434.3Zm.6,61.5c0-7.3,4.9-12.3,11.9-12.3,7.5,0,12.9,5.2,12.9,12.4a12.06,12.06,0,0,1-12.1,12.3C1493.8,508.4,1488.4,503.1,1488.5,495.8Zm43,6.2c-5.4-19.3-15.8-32.9-37.7-34.1-3.4-.2-6.7-1.8-6.2-5.5.8-6,6.1-5.1,10.9-5.3,15.2,1.4,26.6,9.8,35,22.3a58.389,58.389,0,0,1,8.8,19.7c.9,4,1,8.5-3.7,9.8C1533.4,510.4,1532.6,505.7,1531.5,502Z"/>
      <g id="Group_389" data-name="Group 389">
        <path id="Path_367" data-name="Path 367" class="cls-8" d="M1761.2,622.3c1-9.6.2-19.3.4-28.9,0-.5,0-1.1-.6-1.3-.6-.1-1,.5-1.5.8-8.9,6.9-17.8,13.7-26.8,20.6-2.4,1.9-3.9,1.9-6.4.2-1.9-1.4-3.8-2.8-5.7-4.3-7.5-5.8-15-11.5-23-17.7-.1,1.3-.2,2-.2,2.8v26.7c0,3.6,1.3,5,4.9,5,18.1.1,36.3,0,54.4,0C1759.5,626.2,1760.9,625,1761.2,622.3Z"/>
        <path id="Path_368" data-name="Path 368" class="cls-8" d="M1731.5,605.8c5-4,10.2-7.9,15.2-11.8,3.4-2.7,6.9-5.3,10.7-8.3h-55.7c.7.8,1,1.1,1.3,1.4,8.2,6.3,16.4,12.5,24.6,18.9C1729.1,607.1,1730.1,606.9,1731.5,605.8Z"/>
        <path id="Path_369" data-name="Path 369" class="cls-8" d="M1792,606.1a62.3,62.3,0,1,0-62.3,62.3A62.309,62.309,0,0,0,1792,606.1Zm-90.3,26.7c-6.8,0-11.1-4.3-11.2-11.1q-.15-15.9,0-31.8c0-7,4.5-11.5,11.5-11.5q27.45-.15,54.9,0c7,0,11.4,4.6,11.4,11.6v31.3c0,7.6-4.1,11.6-11.7,11.6h-27.2C1720.1,632.8,1710.9,632.8,1701.7,632.8Z"/>
      </g>
      <g id="Group_390" data-name="Group 390">
        <path id="Path_370" data-name="Path 370" class="cls-8" d="M1815.6,897a35.4,35.4,0,0,0-35.5-35.3c-18.2.1-34,16.4-34.1,35.2a35.323,35.323,0,0,0,34.7,35.4C1799.6,932.4,1815.6,916.2,1815.6,897Z"/>
        <path id="Path_371" data-name="Path 371" class="cls-8" d="M1905,920.2a121.3,121.3,0,1,0-121.3,121.3A121.29,121.29,0,0,0,1905,920.2Zm-128.4,74c-20.6-27.2-39.7-55.2-49.5-88.4a27.172,27.172,0,0,1-1.3-9.5c.2-26.4,21.4-50.6,46.5-53.5,29.8-3.5,55,13.8,61.8,41.3,3.4,14-.3,26.3-5.7,38.5-11.4,25.4-26.6,48.5-43.5,70.7C1782.1,997,1779.8,998.4,1776.6,994.2Z"/>
      </g>
      <g id="Group_391" data-name="Group 391">
        <path id="Path_372" data-name="Path 372" class="cls-8" d="M1429.8,1007a45.677,45.677,0,0,0,1.6,11,1.341,1.341,0,0,0,1.5,1.1h9c1,0,1.5-.4,1.4-1.4V1007c0-1.1-.3-1.5-1.5-1.5h-10.7C1430.1,1005.5,1429.8,1005.9,1429.8,1007Z"/>
        <path id="Path_373" data-name="Path 373" class="cls-8" d="M1473.4,989.7h-5c-1.1,0-1.6.2-1.4,1.5a48.14,48.14,0,0,1,1,9.3c0,1,.4,1.3,1.4,1.3h9.5c1,0,1.3-.5,1.2-1.4a34.487,34.487,0,0,0-2.7-9.5c-.6-1.3-1.1-2.3-2.7-1.3C1474.4,989.8,1473.9,989.7,1473.4,989.7Z"/>
        <path id="Path_374" data-name="Path 374" class="cls-8" d="M1425.8,1000.5a58.755,58.755,0,0,1,1-9.3c.2-1.2,0-1.6-1.2-1.5h-7.4a1.556,1.556,0,0,0-1.7,1.1,36.876,36.876,0,0,0-2.7,9.7c-.1.9.2,1.3,1.2,1.3h9.5C1425.4,1001.8,1425.8,1001.5,1425.8,1000.5Z"/>
        <path id="Path_375" data-name="Path 375" class="cls-8" d="M1463,1000.1a46.2,46.2,0,0,0-1.1-9.1,1.4,1.4,0,0,0-1.6-1.3c-3.2.1-6.3,0-9.5,0-1,0-1.5.3-1.5,1.4v9.3c0,1.1.5,1.4,1.5,1.4h5.3c1.8,0,3.5-.1,5.3,0C1462.7,1001.8,1463,1001.3,1463,1000.1Z"/>
        <path id="Path_376" data-name="Path 376" class="cls-8" d="M1444.6,1000.3c-.1-3.1,0-6.1,0-9.2,0-1-.3-1.5-1.4-1.5h-9.7a1.316,1.316,0,0,0-1.5,1.3,49.258,49.258,0,0,0-1.1,9.4c0,1.2.5,1.5,1.5,1.5,1.8-.1,3.5,0,5.3,0h5.3C1444.1,1001.8,1444.6,1001.5,1444.6,1000.3Z"/>
        <path id="Path_377" data-name="Path 377" class="cls-8" d="M1444.5,983.3v-8.9c0-1.3-.5-1.3-1.5-.8a20.033,20.033,0,0,0-8.7,9.9c-.4.8-.1,1.1.8,1.1h8.1C1444.2,984.6,1444.6,984.2,1444.5,983.3Z"/>
        <path id="Path_378" data-name="Path 378" class="cls-8" d="M1449.4,978.7v4.5c0,.9.3,1.3,1.2,1.3h8.1c.8,0,1.1-.3.8-1.1-2-4.2-4.6-7.8-8.8-10-1-.5-1.4-.2-1.3.9C1449.4,975.8,1449.4,977.3,1449.4,978.7Z"/>
        <path id="Path_379" data-name="Path 379" class="cls-8" d="M1472.7,983.2a30.587,30.587,0,0,0-8.4-7.2,37.424,37.424,0,0,0-5.3-2.6,34.613,34.613,0,0,1,6.1,10.4c.3.7.8.8,1.5.8h5.6c.4,0,.9.2,1.1-.2C1473.5,983.8,1473,983.5,1472.7,983.2Z"/>
        <path id="Path_380" data-name="Path 380" class="cls-8" d="M1428.9,983.7a32.234,32.234,0,0,1,6-10.2,17.062,17.062,0,0,0-4.7,2.1,30.235,30.235,0,0,0-9.2,7.9c-.6.7-.5,1.1.5,1.1h6.2A1.534,1.534,0,0,0,1428.9,983.7Z"/>
        <path id="Path_381" data-name="Path 381" class="cls-8" d="M1444.5,1034.9v-8.4a.959.959,0,0,0-1.1-1.1h-7.5c-.7,0-.9.2-.6.9a22.318,22.318,0,0,0,8.2,9.3C1444.2,1035.9,1444.5,1035.7,1444.5,1034.9Z"/>
        <path id="Path_382" data-name="Path 382" class="cls-8" d="M1426.2,1017.6a48.3,48.3,0,0,1-1.4-10.7c0-1-.3-1.4-1.3-1.4H1414c-1,0-1.4.4-1.2,1.4a34.382,34.382,0,0,0,3.4,11,1.955,1.955,0,0,0,2,1.2c2.3-.1,4.5-.1,6.8,0C1426.1,1019.2,1426.5,1018.8,1426.2,1017.6Z"/>
        <path id="Path_383" data-name="Path 383" class="cls-8" d="M1449.4,1026.8c.1,1.2,0,2.4,0,3.6v4.2c0,1.1.4,1.3,1.2.7a25.074,25.074,0,0,0,7.9-8.9c.5-.9.1-1.1-.8-1.1h-6.9C1449.6,1025.3,1449.3,1025.8,1449.4,1026.8Z"/>
        <path id="Path_384" data-name="Path 384" class="cls-8" d="M1496.3,1004.1a49.3,49.3,0,1,0-49.3,49.3A49.335,49.335,0,0,0,1496.3,1004.1Zm-87.7-.5a38.032,38.032,0,0,1,38.4-37.5c21-.4,38.4,17,38.4,38.1a38.367,38.367,0,0,1-39.8,38.1C1425.7,1041.6,1408.3,1025.2,1408.6,1003.6Z"/>
        <path id="Path_385" data-name="Path 385" class="cls-8" d="M1428.1,1025.3h-5.3c-.3,0-.8-.1-1,.2-.3.5.2.7.5,1a38.248,38.248,0,0,0,7.3,6,46.638,46.638,0,0,0,5,2.5,57.581,57.581,0,0,1-5.1-9C1429.4,1025.4,1428.8,1025.3,1428.1,1025.3Z"/>
        <path id="Path_386" data-name="Path 386" class="cls-8" d="M1463.6,1027.5a4.981,4.981,0,0,1-1,1.9,36.383,36.383,0,0,1-3.5,5.2c.2.1.2.2.2.2a32.382,32.382,0,0,0,12.4-8.5c.5-.6.3-.9-.4-.9-1.4,0-2.8.1-4.2,0C1465.3,1025.1,1464,1025.5,1463.6,1027.5Z"/>
        <path id="Path_387" data-name="Path 387" class="cls-8" d="M1461.7,1018.1a66.1,66.1,0,0,0,1.4-9.8c.1-1.6-.4-1.8-1.7-1.7-1.7.1-3.3,0-5,0-1.8,0-3.5.1-5.3,0-1.2,0-1.7.3-1.7,1.6.1,3.5.1,6.9,0,10.4,0,1.3.5,1.6,1.7,1.6,2.7-.1,5.3-.1,8,0C1460.7,1020.3,1461.4,1019.6,1461.7,1018.1Z"/>
        <path id="Path_388" data-name="Path 388" class="cls-8" d="M1476.5,1019.5a33.538,33.538,0,0,0,3.7-11.6c.1-.9-.2-1.3-1.1-1.3h-9.5c-1.1,0-1.4.4-1.4,1.4a54.021,54.021,0,0,1-1.4,10.6c-.3,1.1-.2,1.6,1.2,1.6,2.4,0,4.8-.3,7.2.2C1475.8,1020.5,1476.1,1020.1,1476.5,1019.5Z"/>
      </g>
      <path id="Path_389" data-name="Path 389" class="cls-7" d="M1042.7,493.7,987.2,617.8,1163.3,887"/>
      <path id="Path_390" data-name="Path 390" class="cls-7" d="M1071.8,484l94,60.5,157.2-253L820.7,261.9l78.8,228.4,129.8-16"/>
      <line id="Line_908" data-name="Line 908" class="cls-7" x2="174.4" y2="258.4" transform="translate(868.3 191.9)"/>
      <path id="Path_391" data-name="Path 391" class="cls-6" d="M1123.8,900.7l-106.4-39L913.1,934l210.7,12.6-103.3-78.1"/>
      <circle id="Ellipse_118" data-name="Ellipse 118" class="cls-8" cx="13.6" cy="13.6" r="13.6" transform="translate(1003.8 852.2)"/>
    </g>
  </g>
</svg>
