<svg xmlns="http://www.w3.org/2000/svg" viewBox="4139 -4880 30 20">
  <defs>
    <style>
      .cls-1 {
        fill: #d3d3d3;
      }
    </style>
  </defs>
  <path id="Path_395" data-name="Path 395" class="cls-1" d="M26.1,0H3.887A3.919,3.919,0,0,0,0,3.92V16.08A3.919,3.919,0,0,0,3.887,20H26.113A3.919,3.919,0,0,0,30,16.08V3.92A3.943,3.943,0,0,0,26.1,0ZM11.328,15.02a1.577,1.577,0,0,1-1.545,1.815H5.258A1.577,1.577,0,0,1,3.712,15.02,7.7,7.7,0,0,1,5.592,10.8a3.824,3.824,0,1,1,3.824,0A7.494,7.494,0,0,1,11.328,15.02Zm15.789.241a1.57,1.57,0,0,1-1.561,1.574H17.207a1.57,1.57,0,0,1-1.561-1.574h0a1.57,1.57,0,0,1,1.561-1.574h8.348a1.56,1.56,0,0,1,1.561,1.574Zm-1.561-3.679H17.207a1.574,1.574,0,0,1,0-3.149h8.348a1.574,1.574,0,0,1,0,3.149Zm0-5.269H17.207a1.574,1.574,0,0,1,0-3.149h8.348a1.574,1.574,0,0,1,0,3.149Z" transform="translate(4139 -4880)"/>
</svg>
