<svg xmlns="http://www.w3.org/2000/svg" viewBox="4140 -4810 28 31">
  <defs>
    <style>
      .cls-1 {
        fill: #d3d3d3;
      }
    </style>
  </defs>
  <g id="Group_395" data-name="Group 395" transform="translate(2879 -5473)">
    <path id="Path_205" data-name="Path 205" class="cls-1" d="M19.44,19.082V14.089a1.1,1.1,0,0,0-1.084-1.1h-.3V9.8A2.626,2.626,0,0,0,15.5,7.2H12.741a2.626,2.626,0,0,0-2.562,2.6v3.2h-.3a1.1,1.1,0,0,0-1.084,1.1v4.992a1.1,1.1,0,0,0,1.084,1.1h8.473A1.1,1.1,0,0,0,19.44,19.082ZM12.15,9.8a.64.64,0,0,1,.591-.6H15.5a.64.64,0,0,1,.591.6v3.2H12.15V9.8Z" transform="translate(1260.89 662.994)"/>
    <path id="Path_206" data-name="Path 206" class="cls-1" d="M27.98,14.178A14.142,14.142,0,0,0,23.645,3.994,14.007,14.007,0,0,0,13.4,0,14.2,14.2,0,0,0,0,13.579,13.761,13.761,0,0,0,3.645,23.664a1.686,1.686,0,0,0,2.365.2h0a1.393,1.393,0,0,0,.493-1,1.514,1.514,0,0,0-.394-1.1A11.547,11.547,0,0,1,3.349,11.482a10.754,10.754,0,0,1,7.192-7.788,10.923,10.923,0,0,1,10.049,1.7,11.275,11.275,0,0,1,4.236,9.386,11.074,11.074,0,0,1-6.7,9.585v-.2a1.859,1.859,0,0,0-2.759-1.6l-4.335,2.5a1.882,1.882,0,0,0,0,3.2l4.335,2.5a1.859,1.859,0,0,0,2.759-1.6v-1.5A13.967,13.967,0,0,0,27.98,14.178Z" transform="translate(1261.02 663.005)"/>
  </g>
</svg>
