<svg xmlns="http://www.w3.org/2000/svg" xmlns:xlink="http://www.w3.org/1999/xlink" viewBox="3900.094 -4797 25.995 36.001">
  <defs>
    <style>
      .cls-1 {
        fill: #212121;
      }

      .cls-2 {
        filter: url(#Path_89);
      }

      .cls-3 {
        filter: url(#Path_88);
      }
    </style>
    <filter id="Path_88" x="3901.97" y="-4785.295" width="24.119" height="24.296" filterUnits="userSpaceOnUse">
      <feOffset dy="2" input="SourceAlpha"/>
      <feGaussianBlur stdDeviation="1" result="blur"/>
      <feFlood flood-opacity="0.161"/>
      <feComposite operator="in" in2="blur"/>
      <feComposite in="SourceGraphic"/>
    </filter>
    <filter id="Path_89" x="3900.094" y="-4797" width="25.869" height="15.393" filterUnits="userSpaceOnUse">
      <feOffset dy="2" input="SourceAlpha"/>
      <feGaussianBlur stdDeviation="1" result="blur-2"/>
      <feFlood flood-opacity="0.161"/>
      <feComposite operator="in" in2="blur-2"/>
      <feComposite in="SourceGraphic"/>
    </filter>
  </defs>
  <g id="Group_394" data-name="Group 394" transform="translate(2264 -5326.939)">
    <g class="cls-3" transform="matrix(1, 0, 0, 1, -2264, 5326.94)">
      <path id="Path_88-2" data-name="Path 88" class="cls-1" d="M12.441,34.011c2.711,0,5.442.032,8.152-.016.786-.016.9.174.845.759q-.884,7.894-1.689,15.819c-.039.4-.2.6-.668.743a23.3,23.3,0,0,1-13.437-.032c-.55-.158-.55-.442-.589-.79-.334-3.192-.688-6.4-1.022-9.592-.236-2.086-.432-4.156-.688-6.226-.059-.521.059-.68.746-.664,2.79.032,5.559,0,8.349,0Zm-1.159,8.47v4.188c0,.743-.02,1.47,0,2.212,0,.6.2,1.185,1.061,1.2s1.08-.569,1.08-1.169V36.271a2.57,2.57,0,0,0-.02-.553.992.992,0,0,0-1.08-.853.962.962,0,0,0-1,.838,2.884,2.884,0,0,0-.039.711Q11.282,39.423,11.282,42.481Zm6.8-3.666h0c.079-.885.157-1.786.236-2.671.039-.6-.079-1.185-.963-1.233s-1.12.521-1.159,1.122c-.354,4.125-.688,8.281-1.022,12.421-.079,1.09.255,1.612.982,1.628.688.016,1.08-.49,1.159-1.5Zm-9,3.856h0c-.177-2.212-.334-4.409-.511-6.621-.059-.822-.53-1.28-1.2-1.169-.864.142-.943.7-.9,1.28.295,4.172.609,8.36.9,12.532a5.353,5.353,0,0,0,.079.553,1.011,1.011,0,0,0,1.12.822.946.946,0,0,0,.963-.948,4.3,4.3,0,0,0-.02-.711C9.357,46.5,9.219,44.583,9.082,42.671Z" transform="translate(3901.64 -4818.29)"/>
    </g>
    <g class="cls-2" transform="matrix(1, 0, 0, 1, -2264, 5326.94)">
      <path id="Path_89-2" data-name="Path 89" class="cls-1" d="M9.606,4.423C6.727,4.39,3.868,4.373.989,4.307c-.313,0-.839.228-.963-.281-.1-.413.109-.68.537-.913A17.33,17.33,0,0,1,7.1,1.271,9.646,9.646,0,0,1,8.079,1.2c.45-.011.7-.1.679-.547C8.713.228,9.063-.006,9.611,0s.923.217.889.66c-.032.586.437.544.888.581a18.658,18.658,0,0,1,7.033,1.9c.217.113.434.243.65.356.375.21.281.526.245.8-.055.348-.448.217-.722.214C15.6,4.493,12.6,4.458,9.606,4.423Z" transform="matrix(0.97, -0.26, 0.26, 0.97, 3903.09, -4790.99)"/>
    </g>
  </g>
</svg>
