<svg xmlns="http://www.w3.org/2000/svg" viewBox="4002 -4828.235 77.876 89.571">
  <defs>
    <style>
      .cls-1 {
        fill: #fff;
      }
    </style>
  </defs>
  <path id="Subtraction_2" data-name="Subtraction 2" class="cls-1" d="M3879.4-78.429h-70.888A3.809,3.809,0,0,1,3805-82.47v-81.489a3.809,3.809,0,0,1,3.513-4.041h70.849a3.857,3.857,0,0,1,3.514,4.041V-82.47a4.226,4.226,0,0,1-1.174,3.028A3.231,3.231,0,0,1,3879.4-78.429ZM3844.875-108.6a12.562,12.562,0,0,1,5.646,1.229,4.066,4.066,0,0,1,2.346,2.408,11.462,11.462,0,0,0-1.975,6.466,11.641,11.641,0,0,0,11.627,11.629A11.642,11.642,0,0,0,3874.148-98.5a11.566,11.566,0,0,0-8.71-11.225,2.38,2.38,0,0,0-.632-.085,2.452,2.452,0,0,0-2.376,1.836,2.454,2.454,0,0,0,.261,1.888,2.37,2.37,0,0,0,1.49,1.12,6.681,6.681,0,0,1,4.983,6.466,6.7,6.7,0,0,1-6.69,6.69,6.7,6.7,0,0,1-6.69-6.69,6.508,6.508,0,0,1,1.706-4.446,2.5,2.5,0,0,0,.179-3.053,8.46,8.46,0,0,0-4.226-5.41,16.865,16.865,0,0,0-8.569-2.177,17.554,17.554,0,0,0-7.678,1.661,13.211,13.211,0,0,1,2.946-5.315,12.883,12.883,0,0,1,6.482-3.665c5.607-1.407,9.71-4.372,11.865-8.575a15.609,15.609,0,0,0,1.426-9.922.058.058,0,0,0-.022-.045.058.058,0,0,1-.022-.045c-.013-.041-.023-.082-.032-.122a.461.461,0,0,0-.1-.238.227.227,0,0,1-.045-.09.224.224,0,0,0-.045-.09.955.955,0,0,0-.135-.225.623.623,0,0,0-.134-.179.613.613,0,0,1-.068-.09.626.626,0,0,0-.067-.09.632.632,0,0,0-.088-.066.636.636,0,0,1-.091-.068.621.621,0,0,0-.092-.07.665.665,0,0,1-.088-.066,1.022,1.022,0,0,1-.111-.066.966.966,0,0,0-.113-.068c-.022-.011-.042-.022-.06-.033a.306.306,0,0,0-.166-.057.642.642,0,0,0-.159-.049,1.432,1.432,0,0,1-.155-.041.16.16,0,0,1-.067-.022.161.161,0,0,0-.067-.022,1.857,1.857,0,0,0-.494-.045,6.675,6.675,0,0,1-6.645-6.69,6.7,6.7,0,0,1,6.69-6.69,6.7,6.7,0,0,1,6.69,6.69,6.58,6.58,0,0,1-.808,3.188,2.432,2.432,0,0,0-.213,1.885,2.507,2.507,0,0,0,1.2,1.481,2.6,2.6,0,0,0,1.193.294,2.457,2.457,0,0,0,2.174-1.281,11.924,11.924,0,0,0,1.392-5.522,11.642,11.642,0,0,0-11.628-11.629,11.642,11.642,0,0,0-11.628,11.629,11.692,11.692,0,0,0,9.383,11.4c0,3.164-1.273,8.794-9.788,10.955-12.8,3.189-14.64,15.726-13.828,21.91a2.1,2.1,0,0,0,.494,1.167,6.563,6.563,0,0,1,1.347,4.041,6.7,6.7,0,0,1-6.69,6.69,6.7,6.7,0,0,1-6.69-6.69,6.7,6.7,0,0,1,6.69-6.69,2.5,2.5,0,0,0,2.469-2.469v-31.159a2.5,2.5,0,0,0-2.469-2.469,6.7,6.7,0,0,1-6.69-6.69,6.7,6.7,0,0,1,6.69-6.69,6.7,6.7,0,0,1,6.69,6.69,6.7,6.7,0,0,1-1.078,3.682,2.438,2.438,0,0,0-.361,1.874,2.368,2.368,0,0,0,1.08,1.537,2.4,2.4,0,0,0,1.358.416,2.39,2.39,0,0,0,2.054-1.135,11.615,11.615,0,0,0,1.93-6.375,11.642,11.642,0,0,0-11.628-11.629,11.665,11.665,0,0,0-11.718,11.584,11.676,11.676,0,0,0,9.159,11.359v26.759a11.676,11.676,0,0,0-9.159,11.36,11.642,11.642,0,0,0,11.629,11.629A11.642,11.642,0,0,0,3838.409-98.5a11.487,11.487,0,0,0-1.572-5.837,1.382,1.382,0,0,0,.045-.449c0-.812.828-1.769,2.161-2.5A12.4,12.4,0,0,1,3844.875-108.6Z" transform="translate(197 -4660.235)"/>
</svg>
